<svg width="161" height="31" fill="none" xmlns="http://www.w3.org/2000/svg"><path d="m1.776 30.91 11.533-11.59H1.776v11.59ZM17.152 30.91l11.534-11.59H17.151v11.59ZM28.686.003H13.308L1.775 11.593v3.864h26.91V.003ZM39.501 2.009l1.981-1.99h3.886l1.05 2.609v2.091L44.833 7.01l1.585 2.25v2.072l-1.05 2.63h-1.903V11.97l-1.981 1.992h-5.947V.019h3.964v1.99Zm4.816 1.037-.376-.896h-6.303v3.804h5.371l1.308-1.912v-.996Zm0 6.892L43.01 8.105h-5.371v3.705h6.303l.376-.876v-.996ZM118.779 2.009l1.98-1.99h4.125l2.081 2.768-1.705 1.295-1.407-1.932h-5.966l-.951 1.314v7.051l.951 1.295h5.946l1.427-1.932 1.685 1.315-2.081 2.768h-2.121V11.97l-1.982 1.991h-3.924l-2.022-2.709V2.727l2.022-2.709h1.942v1.99ZM136.558 14.002h-4.856l-2.22-1.654V6.095l2.22-1.633h4.856l2.2 1.633v6.254l-2.2 1.654Zm.119-6.832-.832-.638h-3.449l-.833.638v4.103l.833.637h3.449l.832-.637V7.17ZM147.694 13.942v-.478l-.635.498h-4.677l-2.041-1.733V6.154l2.041-1.713h4.777l.535.438v-4.8h2.081v13.863h-2.081Zm0-6.334-.912-1.056h-3.647l-.713.598v4.063l.693.598h3.746l.833-.877V7.608ZM153.648 9.958v1.295l.832.617h3.746l1.387-1.175 1.368 1.634-2.022 1.633h-5.173l-2.219-1.653V6.094l2.219-1.633h5.173l2.042 1.673v3.824h-7.353Zm5.272-2.848-.694-.578h-3.746l-.832.638v.796h5.272V7.11ZM57.002 4.442v5.617l-6.085 7.688-1.585-1.354 2.06-2.61-3.17-3.764V4.442h2.08v4.76l2.399 2.889 2.24-2.789v-4.86H57ZM62.64 6.553v7.41h-2.022v-7.41h-2.022V4.442h2.022V.04h2.021v4.402h2.101v2.111h-2.1ZM68.4 9.96v1.294l.832.617h3.746l1.387-1.175 1.368 1.634-2.022 1.633h-5.173l-2.22-1.653V6.095l2.22-1.633h5.173l2.042 1.673v3.824H68.4Zm5.272-2.85-.694-.577h-3.746l-.832.638v.796h5.272v-.856ZM84.724 2.151l-.911 1.295v10.517h-2.101V3.446L80.76 2.15h-3.428V.02h4.46l.95 1.275.972-1.275h4.499V2.15h-3.489ZM96.773 13.963V7.21l-.813-.658h-2.953l-.951 1.056v6.334h-2.061V0h2.06v4.88l.437-.438h4.162l2.2 1.693v7.828h-2.081ZM103.514 9.96v1.294l.832.617h3.746l1.387-1.175 1.368 1.634-2.022 1.633h-5.173l-2.219-1.653V6.095l2.219-1.633h5.173l2.042 1.673v3.824h-7.353Zm5.272-2.85-.694-.577h-3.746l-.832.638v.796h5.272v-.856ZM113.994 28.713l2.76-7.742h1.2l2.76 7.742h-1.086l-.63-1.818h-3.288l-.63 1.819h-1.086Zm2.037-2.754h2.646l-1.468-4.25h.29l-1.468 4.25ZM123.953 28.838c-.544 0-1.03-.128-1.457-.384a2.731 2.731 0 0 1-.993-1.05 3.083 3.083 0 0 1-.362-1.497c0-.56.121-1.06.362-1.496.241-.437.572-.783.993-1.04a2.776 2.776 0 0 1 1.457-.384c.366 0 .707.066 1.024.197.317.132.596.309.837.53.241.222.417.482.527.78l-.858.416a1.656 1.656 0 0 0-.599-.707 1.59 1.59 0 0 0-.931-.28c-.337 0-.644.086-.92.26a1.867 1.867 0 0 0-.641.706c-.158.298-.238.64-.238 1.029 0 .374.08.713.238 1.018.159.298.372.534.641.707.276.173.583.26.92.26.352 0 .662-.09.931-.27.268-.188.468-.433.599-.738l.858.436c-.11.291-.286.551-.527.78-.241.221-.52.398-.837.53a2.641 2.641 0 0 1-1.024.197ZM129.161 28.838c-.366 0-.69-.066-.972-.197a1.674 1.674 0 0 1-.652-.561 1.49 1.49 0 0 1-.237-.832c0-.298.062-.565.186-.8.131-.243.331-.447.599-.613.276-.167.621-.285 1.034-.354l2.068-.343v.81l-1.851.313c-.358.062-.62.176-.785.343a.853.853 0 0 0-.238.613c0 .229.089.419.269.572.186.152.417.228.692.228.352 0 .655-.073.91-.218.262-.153.465-.357.61-.613a1.64 1.64 0 0 0 .227-.852V24.91a.907.907 0 0 0-.341-.738c-.22-.194-.513-.291-.879-.291a1.486 1.486 0 0 0-1.385.893l-.837-.436a1.82 1.82 0 0 1 .496-.686 2.602 2.602 0 0 1 1.747-.665c.427 0 .803.083 1.127.25.324.159.576.384.755.675.186.284.279.617.279.998v3.803h-.941v-1.06l.176.063a1.916 1.916 0 0 1-.476.582c-.2.166-.434.298-.703.395a2.568 2.568 0 0 1-.878.145ZM136.006 28.838c-.523 0-.996-.128-1.416-.384a2.764 2.764 0 0 1-.982-1.05 3.061 3.061 0 0 1-.362-1.486c0-.561.121-1.06.362-1.497.241-.443.569-.793.982-1.05.42-.256.893-.384 1.416-.384.462 0 .872.1 1.231.301.358.194.641.458.847.79l-.155.24v-3.472h.972v7.867h-.941v-1.195l.124.166a2.017 2.017 0 0 1-.847.853c-.366.2-.776.301-1.231.301Zm.083-.935c.352 0 .665-.087.941-.26.275-.173.493-.409.651-.707.166-.305.248-.644.248-1.018 0-.381-.082-.72-.248-1.019a1.818 1.818 0 0 0-.651-.717 1.731 1.731 0 0 0-.941-.26c-.345 0-.658.09-.941.27a1.844 1.844 0 0 0-.651.707c-.159.291-.238.63-.238 1.019 0 .374.079.713.238 1.018.159.298.376.534.651.707.276.173.59.26.941.26ZM142.953 28.838a2.702 2.702 0 0 1-1.437-.384 2.736 2.736 0 0 1-.992-1.05 3.132 3.132 0 0 1-.362-1.507c0-.561.117-1.06.351-1.497.241-.436.565-.78.972-1.029a2.574 2.574 0 0 1 1.385-.384c.414 0 .779.076 1.096.229.324.145.596.346.817.602.227.25.4.537.517.863.124.319.186.651.186.998 0 .076-.007.163-.021.26-.007.09-.017.176-.031.26h-4.569v-.832h4.011l-.455.374c.062-.36.028-.682-.103-.966a1.556 1.556 0 0 0-1.448-.925c-.324 0-.62.083-.889.249a1.678 1.678 0 0 0-.63.717c-.145.305-.204.669-.176 1.091-.028.41.034.77.186 1.081.158.305.379.544.662.717.289.167.603.25.94.25.372 0 .686-.087.941-.26.255-.173.462-.395.62-.665l.807.415a2.085 2.085 0 0 1-.517.707c-.228.208-.5.374-.817.5-.31.124-.658.186-1.044.186ZM146.739 28.713v-5.601h.941v1.143l-.134-.177c.138-.353.358-.623.661-.81.304-.188.645-.281 1.024-.281.434 0 .823.121 1.168.364.351.242.593.56.724.956l-.269.01c.145-.436.389-.765.734-.987a2.028 2.028 0 0 1 1.147-.343 2.046 2.046 0 0 1 1.799 1.018c.186.32.279.68.279 1.081v3.628h-.971v-3.316c0-.312-.056-.575-.166-.79a1.222 1.222 0 0 0-.455-.499 1.157 1.157 0 0 0-.661-.187c-.248 0-.472.063-.672.187a1.288 1.288 0 0 0-.466.51c-.11.214-.165.474-.165.78v3.314h-.972v-3.315c0-.312-.055-.575-.165-.79a1.222 1.222 0 0 0-.455-.499 1.16 1.16 0 0 0-.662-.187c-.248 0-.472.063-.672.187a1.278 1.278 0 0 0-.465.51c-.11.214-.165.474-.165.78v3.314h-.962ZM156.378 31c-.124 0-.248-.01-.372-.031a1.19 1.19 0 0 1-.352-.094v-.862c.076.006.169.02.279.041.117.02.231.031.341.031.324 0 .569-.072.734-.218.173-.145.335-.391.486-.738l.352-.842-.021.842-2.378-6.017h1.044l1.851 4.78h-.31l1.84-4.78h1.065l-2.512 6.267a3.557 3.557 0 0 1-.455.82 1.886 1.886 0 0 1-1.592.8Z" fill="#65F62A"/></svg>