<svg width="940" height="180" fill="none" xmlns="http://www.w3.org/2000/svg"><path d="M10.358 179.353 77.633 112.1H10.358v67.253ZM100.056 179.353 167.33 112.1h-67.274v67.253Z" fill="#F0F0F0"/><path fill-rule="evenodd" clip-rule="evenodd" d="M167.331.015h-89.7L10.358 67.268v22.417h156.974V.015ZM230.416 11.657 241.969.107h22.668l6.127 15.14v12.136l-9.249 13.291 9.249 13.06v12.02l-6.127 15.256h-11.099V69.454l-11.56 11.556h-34.684V.108h23.122v11.55Zm28.093 6.018-2.196-5.201h-36.765v22.075h31.331l7.63-11.095v-5.78Zm0 39.989-7.63-10.633h-31.331v21.497h36.765l2.196-5.086v-5.778ZM692.86 11.656 704.414.106h24.055l12.139 16.066-9.942 7.512-8.209-11.21h-34.799l-5.549 7.627v40.913l5.549 7.513h34.684l8.324-11.21 9.827 7.627-12.139 16.065h-12.371V69.453l-11.56 11.556h-22.892L669.738 65.29V15.825L681.531.107h11.329v11.55Z" fill="#F0F0F0"/><path d="M796.566 81.243h-28.325l-12.948-9.593V35.36l12.948-9.477h28.325l12.833 9.477v36.29l-12.833 9.593Zm.694-39.642-4.856-3.698h-20.116l-4.856 3.698v23.808l4.856 3.699h20.116l4.856-3.699V41.601ZM861.523 80.896v-2.774l-3.7 2.89h-27.284l-11.908-10.055v-35.25l11.908-9.94h27.862l3.122 2.543V.456h12.139v80.44h-12.139Zm0-36.752-5.318-6.126h-21.273l-4.162 3.467v23.578l4.047 3.467h21.85l4.856-5.086v-19.3ZM896.253 57.781v7.513l4.856 3.582h21.851l8.092-6.818 7.978 9.477-11.793 9.477h-30.174l-12.949-9.593V35.36l12.949-9.476h30.174l11.908 9.708v22.19h-42.892Zm30.753-16.527-4.046-3.351h-21.851l-4.856 3.698v4.623h30.753v-4.97ZM332.501 25.773v32.592l-35.493 44.612-9.249-7.86 12.023-15.14-18.497-21.843v-32.36h12.139v27.621l13.989 16.759 13.064-16.18v-28.2h12.024ZM365.385 38.024v42.994h-11.793V38.024H341.8v-12.25h11.792V.23h11.793v25.542h12.255v12.251h-12.255ZM398.987 57.787V65.3l4.856 3.582h21.85l8.093-6.818 7.977 9.477-11.792 9.477h-30.175l-12.948-9.593v-36.06l12.948-9.476h30.175l11.908 9.708v22.19h-42.892ZM429.74 41.26l-4.047-3.352h-21.85l-4.856 3.699v4.623h30.753v-4.97ZM494.212 12.482l-5.318 7.512v61.024h-12.255V19.994l-5.549-7.512h-20.001V.116h26.013l5.549 7.396 5.665-7.396h26.244v12.366h-20.348ZM564.493 81.018v-39.18l-4.74-3.814h-17.226l-5.549 6.126v36.752h-12.024V0h12.024v28.316l2.543-2.543h24.278l12.833 9.824v45.42h-12.139ZM603.814 57.787V65.3l4.855 3.582h21.851l8.093-6.818 7.977 9.477-11.792 9.477h-30.175l-12.949-9.593v-36.06l12.949-9.476h30.175l11.907 9.708v22.19h-42.891Zm30.752-16.527-4.046-3.352h-21.851l-4.855 3.699v4.623h30.752v-4.97ZM664.948 166.606l16.101-44.927h6.995l16.101 44.927h-6.331l-3.679-10.553h-19.177l-3.678 10.553h-6.332Zm11.88-15.981h15.438l-8.564-24.664h1.689l-8.563 24.664ZM723.041 167.329c-3.176 0-6.01-.743-8.503-2.231-2.452-1.487-4.382-3.517-5.789-6.09s-2.11-5.468-2.11-8.684c0-3.257.703-6.151 2.11-8.684 1.407-2.533 3.337-4.543 5.789-6.03 2.493-1.488 5.327-2.232 8.503-2.232 2.131 0 4.121.382 5.97 1.146 1.85.764 3.478 1.789 4.885 3.076 1.407 1.286 2.432 2.794 3.076 4.522l-5.006 2.413c-.764-1.689-1.929-3.056-3.497-4.101-1.568-1.086-3.377-1.628-5.428-1.628-1.97 0-3.759.502-5.367 1.507-1.568 1.005-2.814 2.372-3.739 4.101-.924 1.729-1.387 3.719-1.387 5.97 0 2.171.463 4.141 1.387 5.91.925 1.729 2.171 3.095 3.739 4.101 1.608 1.005 3.397 1.507 5.367 1.507 2.051 0 3.86-.522 5.428-1.568a9.849 9.849 0 0 0 3.497-4.281l5.006 2.532c-.644 1.689-1.669 3.197-3.076 4.523-1.407 1.287-3.035 2.312-4.885 3.076-1.849.764-3.839 1.145-5.97 1.145ZM753.417 167.329c-2.131 0-4.021-.381-5.669-1.145-1.608-.804-2.874-1.89-3.799-3.257-.925-1.407-1.387-3.015-1.387-4.824 0-1.729.362-3.277 1.085-4.643.764-1.407 1.93-2.593 3.498-3.558 1.608-.965 3.618-1.649 6.03-2.051l12.061-1.99v4.704l-10.794 1.809c-2.091.362-3.619 1.025-4.583 1.99-.925.965-1.387 2.151-1.387 3.558 0 1.327.522 2.432 1.568 3.317 1.085.884 2.432 1.326 4.04 1.326 2.05 0 3.819-.422 5.307-1.266 1.527-.884 2.713-2.07 3.558-3.558.884-1.487 1.326-3.136 1.326-4.945v-8.261c0-1.769-.663-3.196-1.99-4.282-1.286-1.126-2.995-1.688-5.126-1.688-1.849 0-3.497.482-4.945 1.447-1.407.924-2.452 2.171-3.135 3.739l-4.885-2.533c.603-1.488 1.568-2.814 2.895-3.98 1.326-1.206 2.874-2.151 4.643-2.834a15.25 15.25 0 0 1 5.548-1.026c2.493 0 4.684.483 6.573 1.448 1.89.924 3.357 2.231 4.402 3.919 1.086 1.649 1.629 3.578 1.629 5.79v22.071h-5.488v-6.151l1.025.362a11.141 11.141 0 0 1-2.774 3.377c-1.166.965-2.533 1.728-4.101 2.291s-3.276.844-5.125.844ZM793.35 167.329c-3.056 0-5.81-.743-8.262-2.231-2.412-1.487-4.322-3.517-5.729-6.09s-2.111-5.448-2.111-8.624c0-3.256.704-6.151 2.111-8.684 1.407-2.573 3.317-4.603 5.729-6.09 2.452-1.488 5.206-2.232 8.262-2.232 2.693 0 5.085.583 7.176 1.749 2.09 1.126 3.738 2.654 4.945 4.583l-.905 1.387v-20.141h5.669v45.65h-5.488v-6.935l.724.965c-1.126 2.13-2.774 3.779-4.945 4.945-2.131 1.166-4.523 1.748-7.176 1.748Zm.482-5.427c2.05 0 3.879-.502 5.488-1.507 1.608-1.006 2.874-2.372 3.799-4.101.965-1.769 1.447-3.739 1.447-5.91 0-2.211-.482-4.181-1.447-5.91-.925-1.769-2.191-3.156-3.799-4.161-1.609-1.005-3.438-1.507-5.488-1.507-2.01 0-3.839.522-5.488 1.568-1.608 1.005-2.874 2.372-3.799 4.1-.925 1.689-1.387 3.659-1.387 5.91 0 2.171.462 4.141 1.387 5.91.925 1.729 2.191 3.095 3.799 4.101 1.608 1.005 3.438 1.507 5.488 1.507ZM833.87 167.329c-3.135 0-5.929-.743-8.382-2.231-2.452-1.487-4.382-3.517-5.789-6.09-1.407-2.614-2.111-5.528-2.111-8.745 0-3.256.684-6.151 2.051-8.683 1.407-2.533 3.296-4.523 5.668-5.97 2.412-1.488 5.106-2.232 8.081-2.232 2.412 0 4.543.443 6.392 1.327 1.89.844 3.478 2.01 4.764 3.498a14.731 14.731 0 0 1 3.015 5.005 15.739 15.739 0 0 1 1.086 5.789c0 .442-.04.945-.121 1.508-.04.522-.1 1.025-.181 1.507h-26.654v-4.824h23.398l-2.653 2.171c.361-2.091.16-3.96-.603-5.608-.764-1.649-1.89-2.955-3.377-3.92-1.488-.965-3.177-1.447-5.066-1.447-1.89 0-3.618.482-5.186 1.447-1.568.965-2.794 2.352-3.679 4.161-.844 1.769-1.186 3.879-1.025 6.332-.161 2.372.201 4.462 1.086 6.271.924 1.769 2.211 3.156 3.859 4.161a10.876 10.876 0 0 0 5.488 1.448c2.171 0 4-.503 5.487-1.508a11.873 11.873 0 0 0 3.619-3.859l4.703 2.412c-.643 1.487-1.648 2.854-3.015 4.1-1.327 1.207-2.915 2.171-4.764 2.895-1.809.724-3.839 1.085-6.091 1.085ZM855.957 166.606v-32.504h5.488v6.633l-.784-1.025c.804-2.05 2.09-3.618 3.859-4.703 1.769-1.086 3.759-1.629 5.97-1.629 2.533 0 4.805.704 6.815 2.111 2.05 1.407 3.457 3.256 4.221 5.548l-1.568.06c.844-2.532 2.272-4.442 4.282-5.729 2.01-1.326 4.241-1.99 6.693-1.99 2.252 0 4.282.523 6.091 1.568a11.707 11.707 0 0 1 4.402 4.342c1.086 1.85 1.628 3.94 1.628 6.272v21.046h-5.668v-19.237c0-1.809-.322-3.337-.965-4.583s-1.528-2.211-2.653-2.895c-1.086-.723-2.372-1.085-3.86-1.085-1.447 0-2.754.362-3.92 1.085-1.125.684-2.03 1.669-2.713 2.955-.643 1.246-.965 2.754-.965 4.523v19.237h-5.669v-19.237c0-1.809-.321-3.337-.964-4.583-.644-1.246-1.528-2.211-2.654-2.895-1.085-.723-2.372-1.085-3.859-1.085-1.448 0-2.754.362-3.92 1.085-1.126.684-2.03 1.669-2.714 2.955-.643 1.246-.965 2.754-.965 4.523v19.237h-5.608ZM912.18 179.873c-.724 0-1.448-.061-2.171-.181a7.057 7.057 0 0 1-2.051-.543v-5.005c.443.04.985.12 1.629.241.683.121 1.346.181 1.99.181 1.889 0 3.316-.422 4.281-1.266 1.005-.845 1.95-2.272 2.835-4.282l2.05-4.885-.121 4.885-13.87-34.916h6.091l10.794 27.74h-1.809l10.734-27.74h6.212l-14.654 36.363a20.42 20.42 0 0 1-2.653 4.764c-1.046 1.448-2.332 2.573-3.86 3.377-1.528.845-3.337 1.267-5.427 1.267Z" fill="#F0F0F0"/></svg>